<svg xmlns="http://www.w3.org/2000/svg" xmlns:xlink="http://www.w3.org/1999/xlink" width="500" zoomAndPan="magnify" viewBox="0 0 375 374.999991" height="500" preserveAspectRatio="xMidYMid meet" version="1.0"><defs><g/><clipPath id="87a28c30fc"><path d="M 2 81.328125 L 373 81.328125 L 373 293.578125 L 2 293.578125 Z M 2 81.328125 " clip-rule="nonzero"/></clipPath><clipPath id="bbf64a88fe"><path d="M 28 107 L 347 107 L 347 293.578125 L 28 293.578125 Z M 28 107 " clip-rule="nonzero"/></clipPath><clipPath id="64e8e5f989"><path d="M 81 160 L 294 160 L 294 293.578125 L 81 293.578125 Z M 81 160 " clip-rule="nonzero"/></clipPath><clipPath id="4f361ed72d"><path d="M 0 168 L 93 168 L 93 293.578125 L 0 293.578125 Z M 0 168 " clip-rule="nonzero"/></clipPath><clipPath id="fa9eb83a50"><path d="M 243 181 L 375 181 L 375 293.578125 L 243 293.578125 Z M 243 181 " clip-rule="nonzero"/></clipPath><clipPath id="400107c39f"><path d="M 4 171 L 371 171 L 371 293.578125 L 4 293.578125 Z M 4 171 " clip-rule="nonzero"/></clipPath></defs><g clip-path="url(#87a28c30fc)"><path fill="#ed5737" d="M 370.46875 293.566406 C 371.789062 284.640625 372.480469 275.511719 372.480469 266.214844 C 372.480469 164.097656 289.664062 81.320312 187.5 81.320312 C 85.339844 81.320312 2.519531 164.097656 2.519531 266.214844 C 2.519531 275.511719 3.210938 284.640625 4.53125 293.566406 L 370.46875 293.566406 " fill-opacity="1" fill-rule="nonzero"/></g><g clip-path="url(#bbf64a88fe)"><path fill="#ffa138" d="M 343.679688 293.566406 C 345.226562 284.679688 346.039062 275.542969 346.039062 266.214844 C 346.039062 178.699219 275.058594 107.75 187.5 107.75 C 99.941406 107.75 28.960938 178.699219 28.960938 266.214844 C 28.960938 275.542969 29.769531 284.679688 31.316406 293.566406 L 343.679688 293.566406 " fill-opacity="1" fill-rule="nonzero"/></g><g clip-path="url(#64e8e5f989)"><path fill="#ffc845" d="M 289.574219 293.566406 C 291.90625 284.84375 293.152344 275.675781 293.152344 266.214844 C 293.152344 207.890625 245.851562 160.609375 187.5 160.609375 C 129.148438 160.609375 81.847656 207.890625 81.847656 266.214844 C 81.847656 275.675781 83.09375 284.84375 85.425781 293.566406 L 289.574219 293.566406 " fill-opacity="1" fill-rule="nonzero"/></g><g clip-path="url(#4f361ed72d)"><path fill="#192a2c" d="M 20.105469 238.089844 C 19.152344 243.082031 18.050781 247.515625 16.800781 250.667969 C 16.148438 245.71875 15.75 240.492188 15.589844 238.089844 Z M 31.496094 238.089844 C 31.242188 239.484375 30.96875 240.804688 30.683594 242.027344 C 30.402344 240.765625 30.128906 239.449219 29.871094 238.089844 Z M 49.804688 231.308594 C 48.847656 236.300781 47.75 240.734375 46.496094 243.886719 C 45.84375 238.941406 45.449219 233.710938 45.285156 231.308594 Z M 61.195312 231.308594 C 60.9375 232.703125 60.664062 234.027344 60.378906 235.25 C 60.097656 233.988281 59.828125 232.667969 59.566406 231.308594 Z M 70.726562 219.234375 C 69.921875 223.441406 69.015625 227.246094 68 230.226562 C 67.429688 226.761719 66.9375 222.960938 66.523438 219.234375 Z M 82.117188 219.234375 C 81.859375 220.628906 81.589844 221.953125 81.304688 223.175781 C 81.019531 221.910156 80.75 220.597656 80.488281 219.234375 Z M 0.171875 277.984375 L 7.804688 278.363281 L 4.710938 293.566406 L 92.640625 293.566406 L 92.640625 243.203125 C 91.445312 240.429688 90.417969 235.992188 89.539062 230.894531 L 92.460938 230.894531 C 87.78125 224.019531 85.691406 186.242188 85.691406 186.242188 C 85.691406 186.242188 84.757812 202.488281 82.761719 215.40625 C 77.84375 203.457031 75.609375 168.4375 75.609375 168.4375 C 75.609375 168.4375 72.773438 212.839844 66.464844 218.707031 C 65.3125 208.15625 64.765625 198.316406 64.765625 198.316406 C 64.765625 198.316406 63.835938 214.5625 61.835938 227.484375 C 56.921875 215.53125 54.683594 180.515625 54.683594 180.515625 C 54.683594 180.515625 51.765625 226.210938 45.265625 231.015625 C 45.222656 230.34375 45.199219 229.960938 45.199219 229.960938 C 45.199219 229.960938 45.175781 230.382812 45.128906 231.117188 C 45.007812 231.191406 44.882812 231.261719 44.757812 231.308594 L 45.113281 231.308594 C 44.898438 234.507812 44.265625 242.734375 43.167969 248.621094 L 43.15625 248.625 L 43.167969 248.625 C 43.054688 249.234375 42.9375 249.808594 42.816406 250.355469 L 42.628906 251.101562 C 42.175781 252.90625 41.316406 254.550781 40.148438 255.921875 C 39.707031 254.042969 39.300781 251.960938 38.921875 249.75 L 41.839844 249.75 C 37.160156 242.875 35.070312 205.09375 35.070312 205.09375 C 35.070312 205.09375 34.136719 221.34375 32.140625 234.257812 C 27.226562 222.308594 24.988281 187.292969 24.988281 187.292969 C 24.988281 187.292969 22.070312 232.992188 15.570312 237.792969 C 15.527344 237.121094 15.503906 236.738281 15.503906 236.738281 C 15.503906 236.738281 15.480469 237.160156 15.429688 237.894531 C 15.308594 237.972656 15.1875 238.039062 15.0625 238.089844 L 15.417969 238.089844 C 15.199219 241.289062 14.570312 249.511719 13.472656 255.402344 L 13.457031 255.40625 L 13.472656 255.40625 C 13.359375 256.011719 13.242188 256.585938 13.117188 257.132812 L 12.933594 257.878906 C 11.933594 261.875 8.933594 265.09375 4.992188 266.277344 C 4.964844 266.285156 4.9375 266.292969 4.90625 266.300781 L 10.75 266.59375 C 10.75 266.59375 9.269531 272.640625 0.171875 277.984375 " fill-opacity="1" fill-rule="nonzero"/></g><g clip-path="url(#fa9eb83a50)"><path fill="#192a2c" d="M 262.597656 229.683594 C 261.695312 234.410156 260.652344 238.605469 259.46875 241.589844 C 258.851562 236.90625 258.476562 231.957031 258.324219 229.683594 Z M 273.382812 229.683594 C 273.136719 231.003906 272.878906 232.257812 272.609375 233.414062 C 272.34375 232.21875 272.085938 230.972656 271.839844 229.683594 Z M 283.339844 264.222656 L 283.957031 264.253906 C 283.957031 264.253906 283.8125 264.839844 283.339844 265.804688 Z M 293.3125 235.75 C 292.355469 240.738281 291.257812 245.171875 290.003906 248.324219 C 289.351562 243.378906 288.957031 238.148438 288.792969 235.75 Z M 304.699219 235.75 C 304.441406 237.144531 304.171875 238.464844 303.886719 239.6875 C 303.605469 238.425781 303.332031 237.109375 303.074219 235.75 Z M 314.285156 230.320312 C 313.683594 233.484375 313.011719 236.414062 312.28125 238.898438 C 311.75 236.3125 311.277344 233.375 310.855469 230.320312 Z M 325.070312 230.320312 C 324.824219 231.636719 324.570312 232.890625 324.296875 234.050781 C 324.03125 232.851562 323.773438 231.605469 323.53125 230.320312 Z M 336.078125 249.75 C 335.75 251.65625 335.398438 253.472656 335.03125 255.144531 L 335.03125 253.007812 C 334.636719 252.097656 334.265625 250.996094 333.914062 249.75 Z M 345.128906 238.089844 C 344.867188 239.449219 344.597656 240.765625 344.316406 242.027344 C 344.03125 240.804688 343.761719 239.484375 343.5 238.089844 Z M 359.40625 238.089844 C 359.246094 240.492188 358.851562 245.71875 358.203125 250.667969 C 356.945312 247.515625 355.847656 243.082031 354.890625 238.089844 Z M 243.730469 267.445312 L 250.957031 267.804688 L 249.875 293.566406 L 370.289062 293.566406 L 367.191406 278.363281 L 374.824219 277.984375 C 365.730469 272.640625 364.25 266.59375 364.25 266.59375 L 370.09375 266.300781 C 370.0625 266.292969 370.035156 266.285156 370.007812 266.277344 C 366.0625 265.09375 363.066406 261.875 362.066406 257.878906 L 361.878906 257.132812 C 361.757812 256.585938 361.640625 256.011719 361.527344 255.40625 L 361.542969 255.40625 L 361.527344 255.402344 C 360.429688 249.511719 359.796875 241.289062 359.582031 238.089844 L 359.933594 238.089844 C 359.8125 238.039062 359.6875 237.972656 359.570312 237.894531 C 359.519531 237.164062 359.496094 236.738281 359.496094 236.738281 C 359.496094 236.738281 359.472656 237.121094 359.425781 237.792969 C 352.929688 232.992188 350.011719 187.292969 350.011719 187.292969 C 350.011719 187.292969 347.773438 222.308594 342.859375 234.257812 C 340.863281 221.34375 339.929688 205.09375 339.929688 205.09375 C 339.929688 205.09375 337.992188 240.125 333.667969 248.859375 C 333.097656 246.683594 332.570312 244.125 332.097656 241.355469 L 334.863281 241.355469 C 330.429688 234.847656 328.449219 199.089844 328.449219 199.089844 C 328.449219 199.089844 327.566406 214.46875 325.675781 226.695312 C 321.023438 215.382812 318.90625 182.238281 318.90625 182.238281 C 318.90625 182.238281 316.363281 222.09375 310.714844 229.308594 C 309.046875 216.792969 308.273438 202.753906 308.273438 202.753906 C 308.273438 202.753906 307.339844 219.003906 305.34375 231.917969 C 300.429688 219.96875 298.195312 184.953125 298.195312 184.953125 C 298.195312 184.953125 295.273438 230.652344 288.773438 235.453125 C 288.730469 234.78125 288.707031 234.398438 288.707031 234.398438 C 288.707031 234.398438 288.683594 234.824219 288.636719 235.554688 C 288.515625 235.632812 288.390625 235.699219 288.265625 235.75 L 288.621094 235.75 C 288.40625 238.949219 287.773438 247.175781 286.675781 253.058594 L 286.664062 253.066406 L 286.675781 253.066406 C 286.5625 253.671875 286.445312 254.246094 286.324219 254.792969 L 286.136719 255.539062 C 285.644531 257.5 284.671875 259.277344 283.339844 260.714844 L 283.339844 252.375 C 282.210938 249.75 281.234375 245.546875 280.410156 240.71875 L 283.171875 240.71875 C 278.738281 234.214844 276.761719 198.453125 276.761719 198.453125 C 276.761719 198.453125 275.878906 213.835938 273.988281 226.0625 C 269.335938 214.75 267.21875 181.605469 267.21875 181.605469 C 267.21875 181.605469 264.457031 224.859375 258.304688 229.40625 C 258.261719 228.769531 258.242188 228.40625 258.242188 228.40625 C 258.242188 228.40625 258.21875 228.808594 258.171875 229.503906 C 258.058594 229.574219 257.945312 229.636719 257.824219 229.683594 L 258.160156 229.683594 C 257.953125 232.714844 257.355469 240.5 256.320312 246.070312 L 256.304688 246.078125 L 256.316406 246.078125 C 256.210938 246.648438 256.101562 247.195312 255.984375 247.710938 L 255.808594 248.417969 C 254.863281 252.195312 252.023438 255.246094 248.292969 256.367188 C 248.265625 256.371094 248.238281 256.382812 248.210938 256.390625 L 253.742188 256.664062 C 253.742188 256.664062 252.339844 262.390625 243.730469 267.445312 " fill-opacity="1" fill-rule="nonzero"/></g><g clip-path="url(#400107c39f)"><path fill="#192a2c" d="M 370.292969 293.566406 L 350.160156 285.679688 C 344.382812 279.832031 327.375 266.296875 325.214844 267.621094 C 320.675781 270.410156 310.890625 246.417969 310.890625 246.417969 L 307.394531 251.71875 L 291.671875 225.214844 L 286.832031 238.828125 C 283.628906 233.433594 281.726562 235.09375 281.125 235.90625 C 280.988281 236.09375 280.917969 236.234375 280.917969 236.234375 L 263.621094 206.382812 L 247.894531 232.886719 L 244.40625 227.585938 L 244.402344 227.597656 L 244.402344 227.59375 C 244.234375 227.996094 234.578125 251.554688 230.074219 248.789062 C 229.777344 248.609375 229.203125 248.699219 228.410156 249.015625 C 223.582031 240.28125 219.488281 230.242188 219.488281 230.242188 L 214.359375 238.019531 L 191.289062 199.132812 L 184.1875 219.109375 C 179.488281 211.191406 176.699219 213.628906 175.816406 214.820312 C 175.613281 215.097656 175.511719 215.304688 175.511719 215.304688 L 150.132812 171.5 L 127.0625 210.390625 L 121.9375 202.613281 L 121.933594 202.628906 L 121.933594 202.621094 C 121.691406 203.214844 107.523438 237.777344 100.914062 233.722656 C 96.652344 231.105469 57.34375 257.800781 28.285156 281.203125 L 4.710938 293.566406 L 370.292969 293.566406 " fill-opacity="1" fill-rule="nonzero"/></g><path fill="#4c7b6f" d="M 242.050781 250.074219 L 242.058594 250.074219 C 244.1875 246.476562 243.566406 243.683594 245.246094 238.558594 C 245.40625 238.082031 245.496094 237.511719 245.539062 236.890625 L 248.0625 240.722656 L 261.121094 218.742188 C 260.566406 223.5625 260.4375 229.152344 261.578125 234.277344 C 264.371094 246.835938 258.90625 250.472656 262.164062 253.8125 C 265.417969 257.152344 260.597656 262.984375 263.621094 265.246094 C 266.644531 267.503906 270.488281 250.472656 274.15625 253.8125 C 276.792969 256.214844 280.558594 246.566406 283.636719 241.566406 L 286.871094 247.011719 L 288.933594 243.449219 C 289.007812 245.441406 289.269531 247.363281 289.804688 249.0625 C 292.597656 257.992188 284.910156 259.816406 287.007812 263.226562 C 288.269531 265.285156 289.875 273.292969 291.839844 279.148438 L 258.234375 275.386719 C 252.042969 268.261719 243.792969 259.335938 240.507812 261.351562 C 239.066406 262.234375 237.273438 261.289062 235.339844 259.261719 C 237.855469 254.609375 240.351562 249.164062 242.050781 250.074219 " fill-opacity="1" fill-rule="nonzero"/><path fill="#4c7b6f" d="M 82.300781 257.585938 C 87.21875 259.796875 83.9375 262.488281 84.496094 265.152344 L 49.679688 275.09375 C 63.792969 266.316406 77.832031 255.574219 82.300781 257.585938 " fill-opacity="1" fill-rule="nonzero"/><path fill="#4c7b6f" d="M 99.898438 257.585938 C 105.285156 262.484375 113.878906 233.148438 118.492188 235.605469 L 118.5 235.605469 C 121.625 230.328125 120.710938 226.226562 123.175781 218.714844 C 123.40625 218.011719 123.539062 217.175781 123.601562 216.261719 L 127.308594 221.886719 L 146.46875 189.636719 C 145.65625 196.710938 145.464844 204.910156 147.136719 212.433594 C 151.238281 230.851562 143.214844 236.1875 147.996094 241.09375 C 152.773438 245.992188 145.695312 254.542969 150.132812 257.867188 C 154.570312 261.183594 160.210938 236.1875 165.59375 241.09375 C 169.460938 244.613281 174.988281 230.460938 179.503906 223.125 L 184.246094 231.109375 L 187.273438 225.886719 C 187.382812 228.808594 187.769531 231.625 188.546875 234.125 C 192.648438 247.222656 181.371094 249.898438 184.445312 254.90625 C 185.582031 256.753906 202.117188 266.214844 205.15625 281.019531 L 180.191406 272.730469 L 157.914062 268.183594 L 127 272.730469 L 107.699219 258.53125 L 91.8125 263.066406 C 94.292969 259.234375 96.890625 254.839844 99.898438 257.585938 " fill-opacity="1" fill-rule="nonzero"/><g fill="#192a2c" fill-opacity="1"><g transform="translate(370.740801, 257.680149)"><g><path d="M 13.332031 0.132812 C 13.8125 0.132812 14.277344 0.132812 14.738281 0.132812 C 14.761719 0.109375 14.78125 0.0898438 14.828125 0.0898438 C 14.957031 0.0898438 15.089844 0.109375 15.222656 0.0898438 C 15.421875 0.0234375 15.640625 0.0429688 15.859375 0.0429688 C 16.125 0.0429688 16.386719 0.0429688 16.652344 0.0429688 C 16.738281 0.0429688 16.804688 0.0429688 16.871094 0.0429688 C 17.003906 0.0898438 17.136719 0.0898438 17.269531 0.0898438 C 17.640625 0.0898438 18.015625 0.0898438 18.410156 0.0898438 C 18.457031 0.0898438 18.476562 0.0898438 18.523438 0.0234375 C 18.523438 -0.0429688 18.523438 -0.132812 18.542969 -0.21875 C 18.542969 -0.460938 18.542969 -0.703125 18.542969 -0.945312 C 18.542969 -2.023438 18.523438 -3.101562 18.523438 -4.203125 C 18.523438 -4.332031 18.542969 -4.464844 18.542969 -4.621094 C 18.542969 -4.75 18.542969 -4.90625 18.542969 -5.058594 C 18.632812 -5.148438 18.71875 -5.234375 18.828125 -5.324219 C 19.246094 -5.632812 19.601562 -6.003906 19.996094 -6.355469 C 20.324219 -6.621094 20.613281 -6.929688 20.917969 -7.214844 C 21.074219 -7.324219 21.207031 -7.457031 21.335938 -7.589844 C 21.46875 -7.699219 21.601562 -7.808594 21.734375 -7.917969 C 21.976562 -8.160156 22.238281 -8.425781 22.503906 -8.644531 C 22.746094 -8.863281 22.988281 -9.085938 23.230469 -9.261719 C 23.339844 -9.347656 23.425781 -9.414062 23.515625 -9.503906 C 23.757812 -9.699219 24.019531 -9.898438 24.261719 -10.097656 C 24.527344 -10.316406 24.792969 -10.535156 25.054688 -10.777344 C 25.320312 -11 25.539062 -11.242188 25.804688 -11.460938 C 26.15625 -11.8125 26.507812 -12.144531 26.882812 -12.472656 C 27.011719 -12.625 27.144531 -12.78125 27.300781 -12.914062 C 27.5625 -13.175781 27.828125 -13.441406 28.136719 -13.683594 C 28.289062 -13.835938 28.421875 -13.992188 28.574219 -14.144531 C 28.792969 -14.34375 28.992188 -14.539062 29.191406 -14.738281 C 29.367188 -14.914062 29.519531 -15.066406 29.71875 -15.179688 C 29.71875 -15.199219 29.71875 -15.199219 29.761719 -15.246094 C 29.652344 -15.246094 29.566406 -15.246094 29.476562 -15.246094 C 28.289062 -15.246094 27.101562 -15.246094 25.890625 -15.246094 C 25.648438 -15.246094 25.386719 -15.265625 25.144531 -15.199219 C 25.121094 -15.199219 25.078125 -15.199219 25.054688 -15.199219 C 24.417969 -15.199219 23.800781 -15.199219 23.164062 -15.199219 C 23.097656 -15.199219 23.007812 -15.199219 22.945312 -15.222656 C 22.832031 -15.246094 22.746094 -15.246094 22.636719 -15.246094 C 22.285156 -15.246094 21.953125 -15.246094 21.625 -15.246094 C 21.558594 -15.246094 21.492188 -15.246094 21.449219 -15.246094 C 21.316406 -15.199219 21.183594 -15.199219 21.050781 -15.199219 C 20.984375 -15.179688 20.917969 -15.179688 20.875 -15.15625 C 20.699219 -15.132812 20.523438 -15.113281 20.371094 -15.179688 C 20.28125 -15.199219 20.214844 -15.199219 20.128906 -15.179688 C 20.105469 -15.15625 20.0625 -15.132812 20.039062 -15.089844 C 19.953125 -14.980469 19.839844 -14.871094 19.730469 -14.78125 C 19.664062 -14.738281 19.644531 -14.695312 19.601562 -14.648438 C 19.359375 -14.429688 19.136719 -14.210938 18.894531 -13.992188 C 18.675781 -13.792969 18.457031 -13.59375 18.257812 -13.394531 C 18.234375 -13.375 18.234375 -13.375 18.214844 -13.351562 C 17.992188 -13.175781 17.796875 -12.980469 17.574219 -12.78125 C 17.355469 -12.539062 17.113281 -12.320312 16.894531 -12.078125 C 16.5625 -11.746094 16.234375 -11.417969 15.902344 -11.066406 C 15.773438 -10.933594 15.640625 -10.800781 15.484375 -10.691406 C 15.421875 -10.625 15.355469 -10.582031 15.289062 -10.535156 C 15.089844 -10.691406 14.890625 -10.824219 14.695312 -10.953125 C 14.519531 -11.085938 14.363281 -11.242188 14.210938 -11.371094 C 13.925781 -11.636719 13.617188 -11.878906 13.351562 -12.144531 C 12.980469 -12.515625 12.605469 -12.890625 12.230469 -13.265625 C 11.613281 -13.878906 11 -14.496094 10.382812 -15.132812 C 10.359375 -15.15625 10.316406 -15.15625 10.292969 -15.199219 C 10.140625 -15.199219 9.988281 -15.199219 9.832031 -15.199219 C 8.886719 -15.179688 7.941406 -15.179688 6.996094 -15.199219 C 6.929688 -15.199219 6.863281 -15.222656 6.796875 -15.222656 C 6.535156 -15.246094 6.292969 -15.246094 6.027344 -15.222656 C 5.9375 -15.222656 5.851562 -15.199219 5.761719 -15.199219 C 4.863281 -15.199219 3.980469 -15.199219 3.101562 -15.199219 C 2.617188 -15.179688 2.132812 -15.199219 1.648438 -15.15625 C 1.429688 -15.132812 1.210938 -15.15625 0.988281 -15.132812 C 0.902344 -15.132812 0.835938 -15.15625 0.769531 -15.132812 C 0.835938 -15.046875 0.902344 -14.957031 0.988281 -14.890625 C 1.210938 -14.738281 1.40625 -14.539062 1.628906 -14.363281 C 1.761719 -14.230469 1.890625 -14.121094 2.023438 -13.992188 C 2.289062 -13.75 2.574219 -13.507812 2.859375 -13.285156 C 2.96875 -13.199219 3.101562 -13.089844 3.210938 -12.980469 C 3.367188 -12.847656 3.519531 -12.714844 3.671875 -12.5625 C 3.761719 -12.449219 3.871094 -12.339844 4.003906 -12.230469 C 4.464844 -11.8125 4.925781 -11.394531 5.390625 -10.976562 C 5.410156 -10.933594 5.457031 -10.910156 5.5 -10.867188 C 5.699219 -10.691406 5.917969 -10.535156 6.117188 -10.339844 C 6.269531 -10.183594 6.421875 -10.03125 6.578125 -9.898438 C 6.664062 -9.8125 6.753906 -9.746094 6.839844 -9.65625 C 7.105469 -9.347656 7.433594 -9.128906 7.722656 -8.886719 C 7.808594 -8.820312 7.875 -8.753906 7.964844 -8.6875 C 8.335938 -8.316406 8.710938 -7.941406 9.128906 -7.609375 C 9.21875 -7.566406 9.304688 -7.480469 9.371094 -7.390625 C 9.4375 -7.304688 9.503906 -7.214844 9.570312 -7.148438 C 9.699219 -7.015625 9.832031 -6.90625 9.964844 -6.773438 C 10.117188 -6.644531 10.273438 -6.488281 10.425781 -6.355469 C 10.710938 -6.117188 11.019531 -5.875 11.308594 -5.632812 C 11.503906 -5.5 11.679688 -5.34375 11.835938 -5.191406 C 11.945312 -5.058594 11.988281 -4.949219 11.964844 -4.796875 C 11.945312 -4.683594 11.921875 -4.574219 11.945312 -4.464844 C 11.964844 -4.355469 11.988281 -4.246094 11.988281 -4.136719 C 11.988281 -3.894531 11.988281 -3.652344 11.988281 -3.410156 C 11.988281 -3.34375 11.988281 -3.300781 11.964844 -3.253906 C 11.921875 -3.101562 11.945312 -2.949219 11.945312 -2.792969 C 11.945312 -2.222656 11.945312 -1.671875 11.945312 -1.121094 C 11.945312 -0.769531 11.945312 -0.417969 11.945312 -0.0898438 C 11.945312 -0.0234375 11.921875 0.0234375 11.988281 0.0664062 C 12.097656 0.0898438 12.230469 0.0898438 12.339844 0.0898438 C 12.648438 0.0898438 12.933594 0.0898438 13.21875 0.0898438 C 13.265625 0.0898438 13.308594 0.0898438 13.332031 0.132812 Z M 13.332031 0.132812 "/></g></g></g></svg>